<svg width="78" height="76" viewBox="0 0 78 76" fill="none" xmlns="http://www.w3.org/2000/svg">
<path d="M36.0955 36.8666C34.1886 36.8666 32.4084 36.8666 30.6182 36.8666C29.0142 32.7896 28.3413 28.5586 27.98 24.2371C27.5654 24.1316 27.2041 24.1638 26.8925 24.4643C26.6939 24.6555 26.4903 24.8429 26.2606 25.0602C26.1712 24.9857 26.0781 24.9199 25.9986 24.8404C24.8428 23.6946 23.6932 22.5437 22.5312 21.404C21.9527 20.8354 21.3468 20.2954 20.7658 19.7305C20.1687 19.1495 19.5864 18.5536 18.9992 17.9639C18.9458 17.9105 18.9024 17.8472 18.8279 17.7578C22.0383 14.5772 25.1457 11.322 28.4642 8.23696C29.3245 9.04516 30.1861 9.85461 31.049 10.6628C31.0738 10.6864 31.1222 10.6839 31.1644 10.6951C31.2749 10.6094 31.2203 10.4828 31.2277 10.3785C31.2836 9.49582 31.9242 8.85149 32.8367 8.80432C33.1731 8.78694 33.512 8.79315 33.8485 8.7919C34.1849 8.79066 34.5226 8.7919 34.8888 8.7919C34.9099 8.92102 34.9422 9.03151 34.9447 9.14324C34.9509 9.59886 34.9472 10.0557 34.9472 10.5411C35.0751 10.5635 35.1868 10.5995 35.2973 10.6007C35.8733 10.6045 36.4494 10.6007 37.0242 10.597C37.0614 10.597 37.0974 10.5771 37.1756 10.5536C37.2576 10.2866 37.2029 9.98993 37.2129 9.70066C37.2216 9.4263 37.2154 9.15069 37.2154 8.92598C37.2638 8.86143 37.2737 8.84156 37.2886 8.83039C37.3035 8.81922 37.3246 8.81301 37.3432 8.81301C38.4146 8.8068 39.4873 8.80184 40.5587 8.79935C40.6133 8.79935 40.6691 8.82542 40.766 8.85025C40.8069 9.4114 40.7548 9.98248 40.7983 10.5784C41.1819 10.6293 41.5369 10.5995 41.8883 10.6045C42.2446 10.6094 42.5996 10.6045 42.9882 10.6045C43.0106 10.4741 43.0441 10.3636 43.0453 10.2531C43.0515 9.79874 43.0478 9.34312 43.0478 8.86391C43.136 8.83784 43.2055 8.79935 43.2762 8.79935C43.8523 8.79439 44.4283 8.81673 45.0031 8.7919C45.7344 8.75963 46.1714 9.21028 46.5736 9.71184C46.6779 9.84219 46.7064 10.0408 46.7424 10.2134C46.7747 10.3673 46.7673 10.5287 46.7822 10.7423C47.2874 10.3586 47.712 9.93778 48.1391 9.52313C48.5786 9.09731 49.0094 8.66155 49.4687 8.20345C49.6003 8.31394 49.7257 8.40332 49.8337 8.51133C51.6711 10.3512 53.506 12.1935 55.3421 14.0346C55.6922 14.386 56.0225 14.7634 56.3999 15.0825C57.2813 15.8249 58.0485 16.6827 58.8816 17.4723C58.9672 17.5542 59.0703 17.6188 59.1907 17.7119C58.565 18.4841 57.8201 19.0403 57.1646 19.6871C56.4855 20.355 55.8288 21.0452 55.1447 21.707C54.4768 22.3538 53.8213 23.013 53.1211 23.63C52.4234 24.2445 51.794 24.9373 51.1435 25.5866C50.8939 25.5953 50.771 25.4351 50.6357 25.2985C49.3917 24.0446 48.1503 22.7883 46.9038 21.5369C46.0907 20.7212 45.27 19.913 44.4532 19.1011C43.7343 18.3873 43.023 17.666 42.2967 16.9608C41.0416 15.7442 39.568 15.4015 37.8845 15.8571C37.2216 16.0359 36.6567 16.3872 36.1924 16.8503C35.5381 17.5033 35.1433 18.3202 35.0626 19.2613C35.0428 19.4984 35.0453 19.738 35.0453 19.9751C35.0453 23.3507 35.0453 26.7275 35.0453 30.103C35.0453 30.3985 35.09 30.7052 34.8466 30.9435C34.2693 32.3936 34.2433 33.8461 34.8975 35.2738C35.0813 35.6748 35.3159 36.0658 35.6486 36.3787C35.7752 36.4979 35.8845 36.6357 36.0968 36.8716L36.0955 36.8666ZM48.7338 13.3208C48.91 13.5207 49.0429 13.692 49.1956 13.841C50.1602 14.7795 51.131 15.7131 52.0982 16.6492C52.5103 17.0489 52.9188 17.4537 53.3446 17.8696C54.1665 17.1619 54.848 16.3463 55.6202 15.6349C55.1956 15.2054 54.7934 14.7969 54.3899 14.3922C53.3682 13.3655 52.3477 12.3388 51.3222 11.3158C51.1546 11.1482 51.0516 11.1532 50.8716 11.3245C50.5277 11.6523 50.1937 11.9912 49.8474 12.3152C49.5022 12.638 49.1472 12.9484 48.7338 13.3196V13.3208ZM24.6889 17.8497C26.1836 16.3525 27.6895 14.8441 29.2153 13.3158C28.4381 12.6057 27.661 11.8968 26.859 11.1656C26.7584 11.2525 26.6678 11.322 26.5859 11.4027C26.0917 11.8894 25.6001 12.3773 25.1085 12.8652C24.7708 13.1991 24.4604 13.5679 24.0892 13.8608C23.5281 14.3053 23.0663 14.8466 22.5523 15.3357C22.3115 15.5641 22.3164 15.6933 22.5647 15.9279C23.2376 16.5648 23.9216 17.1905 24.6032 17.8187C24.6156 17.8298 24.6367 17.8311 24.6901 17.8497H24.6889ZM31.5977 26.1142C32.5263 26.108 33.3867 25.2576 33.3829 24.3612C33.378 23.3556 32.2867 22.6008 31.5679 22.6306C30.5697 22.6716 29.7926 23.4152 29.7988 24.3923C29.805 25.3668 30.5933 26.1204 31.5989 26.1142H31.5977ZM45.8486 15.25C45.234 15.2463 44.725 15.7243 44.7337 16.314C44.7412 16.89 45.126 17.3494 45.8088 17.3978C46.329 17.435 46.9671 16.8292 46.9473 16.3326C46.9274 15.8373 46.5301 15.2302 45.8498 15.25H45.8486Z" fill="#333333"/>
<path d="M7.802 55.1497C7.81318 54.401 10.0007 39.6536 10.2303 38.7324C10.2787 38.7163 10.3321 38.6815 10.3868 38.6815C12.4898 38.679 14.5929 38.679 16.7096 38.679C16.7332 38.7398 16.7766 38.8106 16.7903 38.8863C17.5712 43.4599 18.3496 48.0323 19.1342 52.6382C19.0013 52.6791 18.876 52.7313 18.7444 52.7561C17.4197 53.0094 16.0951 53.2589 14.7704 53.5072C14.7145 53.5171 14.6549 53.5084 14.5606 53.5084C14.4414 53.2564 14.4836 52.9746 14.4551 52.7077C14.424 52.4122 14.4017 52.1143 14.3769 51.8175C14.3533 51.5432 14.3297 51.2688 14.3048 50.9659C13.7437 50.9982 13.2285 51.09 12.7083 51.244C12.6053 52.1676 12.5035 53.0702 12.3992 54.0038C10.8759 54.3837 9.36254 54.7611 7.80324 55.1497H7.802ZM12.7046 48.4916C13.2372 48.396 13.7263 48.3998 14.1919 48.2471C14.0181 46.4233 13.848 44.6319 13.6742 42.8417C13.663 42.7262 13.622 42.612 13.5885 42.4655C13.3526 43.3693 12.7642 47.3669 12.7046 48.4916Z" fill="#333333"/>
<path d="M58.6592 47.6289C60.0745 47.799 61.4301 47.9628 62.8057 48.128C62.8231 48.2906 62.8467 48.4247 62.8492 48.5587C62.8591 48.9957 62.8529 49.4327 62.8678 49.8685C62.8765 50.1255 62.8988 50.3837 62.9385 50.6382C63.013 51.1062 63.2601 51.3285 63.7306 51.3794C64.1601 51.4253 64.396 51.3111 64.4842 50.8952C64.653 50.1006 64.5934 49.316 64.1701 48.5997C64.0733 48.4346 63.9081 48.2993 63.7492 48.1826C63.1384 47.7332 62.5226 47.2912 61.8994 46.8604C61.2452 46.4073 60.5537 46.005 59.923 45.5209C59.0204 44.8269 58.5263 43.8858 58.4444 42.7412C58.3985 42.1043 58.4258 41.4724 58.545 40.8442C58.6654 40.2148 58.9782 39.6909 59.4748 39.311C59.7964 39.0652 60.1825 38.8777 60.5686 38.7511C61.265 38.5239 61.9851 38.3787 62.7263 38.3625C63.6611 38.3414 64.5885 38.3575 65.5047 38.5897C66.2582 38.7809 66.9311 39.1248 67.5208 39.6152C67.8573 39.8945 68.0845 40.2781 68.1701 40.7176C68.2471 41.1062 68.3104 41.4997 68.3452 41.8933C68.3911 42.4048 68.4023 42.9187 68.4308 43.4724C68.2831 43.4886 68.1726 43.5159 68.0633 43.5084C67.2117 43.4501 66.36 43.3855 65.5096 43.3222C65.0962 43.2912 64.6828 43.2601 64.2682 43.2279C64.1502 42.9585 64.2048 42.6977 64.1862 42.4457C64.1639 42.1291 64.1701 41.8101 64.1353 41.4948C64.0931 41.1087 63.8312 40.8827 63.4662 40.8815C63.0639 40.879 62.7523 41.1111 62.7213 41.4885C62.6927 41.8424 62.6791 42.2061 62.7287 42.555C62.7945 43.0205 63.0428 43.388 63.4612 43.645C64.2061 44.1031 64.9348 44.5873 65.6723 45.0553C66.2334 45.4116 66.7797 45.7865 67.2254 46.2893C67.3309 46.4085 67.4401 46.5264 67.563 46.6258C68.0795 47.0392 68.3278 47.6202 68.5351 48.2161C68.6456 48.5314 68.7151 48.8703 68.7437 49.2031C68.8244 50.1118 68.9262 51.0231 68.7946 51.9355C68.7722 52.092 68.7362 52.2472 68.7114 52.4036C68.5736 53.2739 67.9851 53.7295 67.2117 53.9778C66.6034 54.1727 65.969 54.2211 65.3284 54.1702C64.4134 54.097 63.5258 53.902 62.653 53.6252C61.882 53.3794 61.1657 53.0231 60.4904 52.5774C59.7641 52.0994 59.7008 52.0187 59.3072 51.465C59.0105 51.0479 58.8876 50.5749 58.7883 50.092C58.6269 49.3111 58.6368 48.519 58.6579 47.6289H58.6592Z" fill="#333333"/>
<path d="M70.1547 38.7647C70.2503 38.7361 70.3061 38.7051 70.3608 38.7051C72.7816 38.715 75.2013 38.7262 77.642 38.7386C77.6668 38.8243 77.7066 38.8963 77.7066 38.9683C77.7103 40.0794 77.7103 41.1905 77.7078 42.3016C77.7078 42.3376 77.6817 42.3724 77.6544 42.4419C76.7035 42.4953 75.7488 42.283 74.7903 42.3116C74.6861 42.7436 74.665 44.4717 74.7494 45.6102C75.6234 45.8101 76.5371 45.825 77.4533 46.0149C77.4695 46.0944 77.5042 46.1862 77.5055 46.2781C77.5092 47.27 77.5092 48.2632 77.5067 49.2551C77.5067 49.3334 77.4881 49.4103 77.4744 49.5221C76.5619 49.4277 75.6904 49.1546 74.7928 49.0652C74.7196 49.5096 74.7084 52.1267 74.7742 52.9212C75.8282 53.203 76.8934 53.4873 77.9425 53.7679C78.0231 54.3762 78.0169 57.0342 77.9362 57.4824C77.8804 57.4799 77.8233 57.4762 77.7662 57.4725C77.7662 57.4725 70.3397 55.1633 70.3012 55.1522C70.2552 53.7989 70.254 52.4333 70.2441 51.0665C70.2341 49.6971 70.2242 48.3278 70.2155 46.9584C70.2068 45.5891 70.1994 44.2197 70.1932 42.8504C70.187 41.4872 70.151 40.1229 70.1534 38.7622L70.1547 38.7647Z" fill="#333333"/>
<path d="M29.944 46.2695C31.4971 46.1665 32.9757 46.1044 34.4258 46.1131C34.5623 46.236 34.5363 46.3614 34.5288 46.4731C34.4878 47.1261 34.4692 47.7816 34.3848 48.4297C34.2582 49.4129 33.9081 49.8958 32.9968 50.5091C32.0943 51.1162 31.0788 51.4253 30.0148 51.5954C29.1892 51.7283 28.3562 51.7432 27.5207 51.7382C26.777 51.7332 26.0533 51.588 25.3717 51.331C24.8912 51.1497 24.458 50.8418 24.2159 50.3217C23.9241 49.6935 23.841 49.0305 23.7739 48.3601C23.7516 48.1429 23.7503 47.9231 23.7541 47.7059C23.7851 45.8201 23.8161 43.9343 23.8571 42.0485C23.8633 41.7729 23.9005 41.4935 23.9527 41.2217C24.1277 40.3191 24.6367 39.6524 25.4338 39.2043C26.3314 38.699 27.3009 38.437 28.3252 38.3799C29.4189 38.3179 30.5064 38.3464 31.5791 38.6133C32.2954 38.7909 32.9372 39.1186 33.5282 39.5432C33.9776 39.866 34.2122 40.3501 34.3525 40.8728C34.5189 41.4911 34.5437 42.1279 34.5536 42.7636C34.5598 43.1757 34.5797 43.5904 34.5176 44.0348C34.1204 44.0969 33.7454 44.0733 33.3742 44.0845C32.9968 44.0957 32.6194 44.0969 32.242 44.1031C31.8845 44.1093 31.5269 44.1193 31.1694 44.123C30.7957 44.1267 30.4208 44.123 30.0185 44.123C30.0049 44.01 29.98 43.897 29.98 43.7841C29.9813 43.208 29.9962 42.632 29.9925 42.0572C29.99 41.7207 29.9875 41.3793 29.9391 41.0479C29.8845 40.6704 29.7131 40.5463 29.337 40.5264C29.3171 40.5264 29.2972 40.5252 29.2774 40.524C28.7026 40.5128 28.4741 40.7015 28.4046 41.2639C28.3773 41.4799 28.3711 41.6996 28.3674 41.9181C28.35 43.0106 28.3351 44.1019 28.3214 45.1944C28.3103 46.1677 28.2929 47.1398 28.2979 48.1131C28.3003 48.4681 28.3612 48.8232 28.3922 49.1783C28.4046 49.3161 28.4952 49.3893 28.6057 49.4402C28.9161 49.5842 29.2302 49.542 29.5306 49.4204C29.6784 49.3608 29.7963 49.2379 29.8249 49.0678C29.8708 48.7947 29.9291 48.5203 29.9354 48.2447C29.9515 47.6103 29.9403 46.9759 29.9403 46.2707L29.944 46.2695Z" fill="#333333"/>
<path d="M41.7439 48.8194H40.1623C39.9761 49.5196 39.9984 50.2583 39.8333 51.0007C38.2914 51.0205 36.7532 51.0404 35.2138 51.0603C35.0971 50.8703 35.179 50.694 35.2101 50.5301C35.5378 48.7772 35.8767 47.0267 36.2094 45.275C36.5856 43.2899 36.9568 41.3035 37.3305 39.3171C37.3702 39.1036 37.4162 38.8901 37.4596 38.6803C37.9289 38.5785 42.0841 38.5487 43.9773 38.6356C44.0158 38.7436 44.0754 38.864 44.1027 38.9906C44.9383 42.9236 45.7713 46.8579 46.6018 50.7921C46.6304 50.9262 46.6353 51.0652 46.6565 51.239C45.8669 51.275 45.1034 51.1496 44.3361 51.1335C43.5689 51.1174 42.7992 51.1248 42.0133 51.0193C41.924 50.2893 41.8395 49.5866 41.7464 48.8206L41.7439 48.8194ZM40.9432 41.6921C40.5596 43.1595 40.3287 44.648 40.1176 46.1403C40.099 46.2719 40.1015 46.406 40.0928 46.5649C40.6105 46.6046 41.0984 46.6195 41.5999 46.5686C41.3789 44.9286 41.1604 43.3097 40.9432 41.6921Z" fill="#333333"/>
<path d="M47.2601 46.7524C48.6158 46.8281 49.9752 46.9039 51.3718 46.9821C51.3917 47.105 51.4227 47.2155 51.4252 47.326C51.4401 47.8014 51.4438 48.2782 51.4587 48.7536C51.4625 48.8915 51.4873 49.0305 51.5022 49.1683C51.5394 49.5109 51.7455 49.6922 52.0658 49.7766C52.6679 49.9331 53.1012 49.655 53.1422 49.0305C53.1769 48.4979 53.1347 47.9802 52.848 47.4849C52.6729 47.1819 52.4035 47.0317 52.1478 46.8828C51.4799 46.4929 50.8206 46.0894 50.1328 45.7282C49.4513 45.3706 48.7697 44.9969 48.1428 44.5314C47.8262 44.2968 47.6437 43.9938 47.4488 43.686C47.1334 43.1856 47.023 42.617 47.0192 42.0373C47.0155 41.6028 47.0676 41.167 47.1161 40.735C47.1632 40.3129 47.3755 39.9504 47.6127 39.6102C47.784 39.3644 48.0571 39.2315 48.3116 39.0913C49.0664 38.6716 49.8957 38.4767 50.7449 38.4035C51.7741 38.3141 52.8057 38.3191 53.83 38.5003C54.6692 38.6493 55.4414 38.9472 56.1304 39.46C56.4222 39.6772 56.6556 39.9429 56.7449 40.2918C56.853 40.7126 56.9386 41.1422 56.9821 41.573C57.0206 41.9603 56.9908 42.3551 56.9908 42.7424C56.5153 42.8008 53.6202 42.699 52.8455 42.5959C52.8331 42.4966 52.8132 42.3861 52.807 42.2744C52.7896 41.9181 52.8033 41.5581 52.7561 41.2067C52.6953 40.7449 52.37 40.5252 51.9119 40.5934C51.8337 40.6046 51.7579 40.6406 51.681 40.6468C51.5159 40.6592 51.4438 40.7635 51.3929 40.9026C51.1831 41.4761 51.2402 42.0335 51.5109 42.5699C51.5593 42.6667 51.6648 42.7412 51.7579 42.807C52.5016 43.3334 53.3284 43.7108 54.1428 44.1081C55.1385 44.5935 56.0199 45.2353 56.7437 46.0696C56.9659 46.3266 57.1149 46.6754 57.2117 47.0081C57.5196 48.0708 57.5606 49.1546 57.3694 50.2471C57.2378 50.997 56.7934 51.47 56.1043 51.7493C55.2775 52.0833 54.4122 52.1503 53.5345 52.1342C52.2769 52.1106 51.0478 51.8946 49.8659 51.475C49.3569 51.295 48.8529 51.0616 48.4283 50.7065C48.252 50.56 47.9764 50.524 47.9094 50.2534C47.5369 49.8635 47.414 49.3669 47.3159 48.8617C47.1955 48.2409 47.1695 47.3756 47.2601 46.7549V46.7524Z" fill="#333333"/>
<path d="M0.0161392 38.7733C0.880206 38.7062 4.02735 38.7075 4.50159 38.7758C4.56615 39.538 4.51028 40.3077 4.51524 41.0774C4.52021 41.8323 4.49786 42.5858 4.49166 43.3407C4.48545 44.1153 4.48421 44.8888 4.47924 45.6635C4.47552 46.4381 4.47055 47.2116 4.46559 47.9862C4.46186 48.7411 4.4569 49.4946 4.45441 50.2495C4.45193 51.0204 4.45441 51.7926 4.45441 52.5934C5.38055 52.4729 6.22103 52.1489 7.08262 52.057C7.12234 52.0918 7.13972 52.1005 7.14717 52.1154C7.1571 52.1315 7.16455 52.1526 7.16455 52.1725C7.16455 53.1843 7.16455 54.1961 7.16455 55.2141C6.96468 55.3904 6.72755 55.4674 6.48671 55.5332C4.48048 56.0869 2.49785 56.7151 0.523903 57.373C0.37865 57.4215 0.229673 57.4624 0.108008 57.4984C0.0571079 57.4599 0.0384857 57.4525 0.0297954 57.4388C0.0186221 57.4227 0.0111733 57.4016 0.0111733 57.383C0.00744885 51.306 0.00372443 45.2302 0 39.1544C0 39.0377 0.0099318 38.921 0.0161392 38.7733Z" fill="#333333"/>
<path d="M36.7816 22.0979C36.9964 22.3834 37.1454 22.6119 37.3242 22.8142C37.8381 23.4002 38.511 23.6423 39.2708 23.6535C40.2267 23.6671 41.0573 23.3344 41.8208 22.7596C42.5967 22.1761 43.0722 21.4213 43.3019 20.4927C43.3093 20.4616 43.3428 20.438 43.3689 20.4058C45.4844 22.515 47.5998 24.6243 49.7153 26.7336C49.7712 27.2662 49.6384 27.7714 49.5614 28.2767C49.4037 29.3146 49.1964 30.3438 49.0089 31.3779C48.9915 31.4748 48.9655 31.5716 48.9456 31.6684C48.9034 31.8733 48.7855 31.9825 48.5955 32.0918C47.4782 32.7311 46.3211 33.291 45.1678 33.8584C45.0821 33.9006 45.0027 33.9527 44.8711 34.0285C44.8748 33.4797 44.9667 32.9782 44.8872 32.4717C44.8103 31.9788 44.6787 31.5108 44.4875 31.0527C44.2888 30.5759 43.9872 30.1662 43.6681 29.7702C43.3602 29.3866 42.9543 29.1172 42.552 28.8341C42.1225 28.5325 41.6619 28.3301 41.174 28.1724C40.6997 28.0197 40.2056 27.9701 39.7078 27.9663C39.1889 27.9626 38.6724 28.0036 38.1808 28.1675C37.7177 28.3214 37.272 28.5262 36.8164 28.71C36.7357 28.1848 36.7096 23.5579 36.7804 22.1004L36.7816 22.0979Z" fill="#333333"/>
<path d="M17.5079 17.3755C17.1168 17.0987 16.7295 16.8616 16.4774 16.4382C16.8499 16.0509 17.2161 15.6698 17.6059 15.2638C17.3254 14.9832 17.0286 14.7002 16.7468 14.4035C16.3074 13.9404 16.1273 13.414 16.3359 12.7759C16.388 12.6157 16.4625 12.4928 16.5718 12.3811C16.8077 12.1402 17.0435 11.8994 17.2869 11.666C17.7015 11.2687 18.1224 10.8764 18.5544 10.4692C18.3396 10.2619 18.1646 10.1017 17.9995 9.9329C17.5811 9.50335 17.5637 9.10856 17.9809 8.70135C18.4315 8.25939 18.8437 7.77521 19.3577 7.3978C19.5637 7.24634 19.7251 7.03654 19.9176 6.86521C20.2466 6.57222 20.5904 6.57471 20.9207 6.87763C21.1218 7.06261 21.3055 7.26621 21.5166 7.48098C21.6457 7.38167 21.7624 7.3109 21.8555 7.21779C22.4316 6.64423 23.0064 6.07067 23.5725 5.48841C23.8009 5.25253 24.079 5.11349 24.3807 5.02286C24.9915 4.83788 25.493 5.08618 25.9362 5.476C26.2466 5.74912 26.5334 6.04832 26.8227 6.32889C27.1727 6.19481 27.2932 5.80747 27.6805 5.7094C27.9499 5.95149 28.2131 6.21344 28.4837 6.52256C27.282 7.76032 26.0629 8.97696 24.8164 10.1626C23.5812 11.337 22.3595 12.5226 21.1665 13.738C19.9598 14.9671 18.7369 16.18 17.5066 17.378L17.5079 17.3755Z" fill="#333333"/>
<path d="M56.4184 7.42374C56.6568 7.22138 56.8877 7.01281 57.131 6.82162C57.4314 6.58574 57.7679 6.58947 58.0497 6.83776C58.2732 7.03392 58.4817 7.24621 58.6915 7.4585C59.1645 7.93771 59.6326 8.42189 60.1031 8.90482C60.3961 9.20526 60.3973 9.40513 60.1031 9.70805C59.9243 9.89303 59.7356 10.0706 59.5593 10.258C59.4488 10.376 59.4488 10.5113 59.5693 10.6243C59.7108 10.7583 59.8784 10.8651 60.0199 10.9992C60.4507 11.4101 60.8865 11.8173 61.2961 12.2481C61.6686 12.6404 61.8573 13.1047 61.6897 13.6584C61.6376 13.831 61.5655 13.9849 61.4265 14.114C61.1372 14.3847 60.8691 14.6789 60.5811 14.9508C60.3253 15.1929 60.3551 15.3866 60.5984 15.5939C60.8219 15.7863 61.0454 15.9787 61.2651 16.1761C61.352 16.2531 61.4277 16.3413 61.5395 16.4555C61.3458 16.6218 61.1683 16.7658 61.0007 16.9198C60.8418 17.0663 60.6928 17.2227 60.5227 17.3903C60.3861 17.2686 60.267 17.1681 60.1565 17.0601C59.491 16.4058 58.8467 15.7292 58.1602 15.0998C56.9907 14.0284 55.8808 12.8986 54.7585 11.7801C53.1421 10.1699 51.5319 8.55472 49.9193 6.94081C49.7827 6.803 49.6511 6.66023 49.5059 6.50629C49.738 6.27165 49.9429 6.05688 50.1564 5.85079C50.3252 5.68692 50.4196 5.69188 50.607 5.86321C50.7684 6.0097 50.9236 6.16364 51.1061 6.33869C51.198 6.27041 51.2961 6.2133 51.3755 6.13757C51.6623 5.86321 51.9354 5.57518 52.2297 5.30827C52.7598 4.82533 53.6425 4.84768 54.1601 5.34799C54.3315 5.51311 54.4953 5.68568 54.6692 5.84831C55.2166 6.36228 55.7666 6.87253 56.3178 7.38277C56.3451 7.4076 56.3898 7.41257 56.4209 7.42498L56.4184 7.42374Z" fill="#333333"/>
<path d="M47.6335 3.38886C47.6335 4.13623 47.6273 4.85008 47.6348 5.56393C47.6422 6.25915 46.9085 7.10708 46.0991 7.04377C45.9811 7.03383 45.8607 7.04377 45.7415 7.04377C41.2362 7.04377 36.7297 7.04377 32.2243 7.04377C32.0654 7.04377 31.9065 7.04997 31.7476 7.04004C30.963 6.99287 30.3522 6.41061 30.3212 5.63097C30.2926 4.89974 30.315 4.16603 30.315 3.41245C30.5384 3.31189 30.7458 3.35162 30.9829 3.36776C31.0536 4.23058 30.9791 5.07975 31.0288 5.93761C31.1418 5.9463 31.2163 5.95127 31.3119 5.95872C31.4286 5.52296 31.3516 5.0872 31.3665 4.65889C31.3801 4.24548 31.369 3.82959 31.369 3.43604C31.5266 3.31934 31.652 3.32803 31.8221 3.42611C31.8395 3.83331 31.8221 4.26659 31.8308 4.69986C31.8407 5.11203 31.7936 5.52793 31.868 5.95003H32.3274C32.4379 5.51675 32.3634 5.08348 32.3783 4.65517C32.3919 4.24176 32.3808 3.82711 32.3808 3.40749C32.6837 3.3032 32.9543 3.36155 33.2473 3.35534C33.3392 3.64461 33.2858 3.92146 33.2945 4.1921C33.3044 4.49005 33.292 4.78801 33.2982 5.08472C33.3032 5.35908 33.2722 5.63469 33.3268 5.92644C33.5776 5.98355 33.806 5.97113 34.0655 5.93761C34.1486 5.08348 34.053 4.23555 34.1238 3.37148H35.122C35.1381 3.47825 35.1679 3.58874 35.1691 3.70172C35.1741 4.27776 35.1716 4.85256 35.1716 5.42861C35.1716 5.58503 35.1716 5.74022 35.1716 5.9252C35.4944 5.98106 35.7762 5.97858 36.1015 5.92644V3.40252C36.4454 3.30817 36.7557 3.35659 37.0934 3.35286C37.194 3.63592 37.1356 3.91277 37.1456 4.18093C37.1567 4.47888 37.1468 4.77683 37.148 5.07355C37.148 5.34915 37.1518 5.62476 37.153 5.91278C37.4174 5.991 37.6446 5.9612 37.9041 5.94754C37.9823 5.09838 37.9004 4.26783 37.9525 3.40873C38.0394 3.38886 38.13 3.35038 38.2207 3.34914C41.2772 3.34665 44.3349 3.34665 47.3914 3.34914C47.4486 3.34914 47.5057 3.36652 47.6311 3.38762L47.6335 3.38886Z" fill="#333333"/>
<path d="M64.4016 36.8293C64.4066 36.7064 64.393 36.6542 64.4128 36.6306C64.7356 36.2582 65.046 35.8721 65.3936 35.5245C65.9386 34.9795 66.4811 34.437 66.9715 33.8398C67.2968 33.4438 67.7027 33.1173 68.0565 32.7436C68.4501 32.3277 68.8151 31.8857 69.2086 31.4711C69.658 30.9968 70.1273 30.5424 70.5817 30.0732C70.717 29.9329 70.825 29.7653 70.9554 29.6176C70.9889 29.5803 71.0572 29.5741 71.1466 29.5393C71.1764 30.0843 71.4818 30.4469 71.8579 30.7796C72.0529 30.9521 72.2515 31.075 72.5048 31.1408C73.02 31.2762 73.5116 31.3097 73.9858 31.0006C74.1447 30.8975 74.3409 30.8516 74.5594 30.7634C74.8797 31.4661 75.128 32.1874 75.4098 32.8926C75.6941 33.6039 75.9573 34.324 76.2416 35.0726C75.3601 35.383 74.6401 35.8212 74.4352 36.8181C74.3123 36.833 74.1795 36.8628 74.0467 36.8628C70.9939 36.8653 67.9411 36.8653 64.8883 36.8628C64.7356 36.8628 64.5817 36.8405 64.4029 36.8268L64.4016 36.8293Z" fill="#333333"/>
<path d="M13.6591 36.797C13.4965 36.833 13.422 36.8641 13.3475 36.8641C10.0985 36.8666 6.84961 36.8666 3.62054 36.8666C3.49763 36.6207 3.38962 36.4171 3.29279 36.2086C3.14505 35.8932 2.92159 35.6661 2.60253 35.5158C2.32692 35.3855 2.06497 35.2266 1.80054 35.0826C1.90979 34.5649 2.8769 32.0062 3.42687 30.7784C3.5237 30.828 3.62054 30.874 3.71365 30.9261C4.21024 31.2079 4.74531 31.3358 5.29777 31.193C5.6727 31.0962 6.02031 30.8988 6.30585 30.6195C6.59511 30.3364 6.79375 30.0049 6.84092 29.5915C7.10412 29.7542 7.9508 30.5648 8.21896 30.9485C8.60754 31.5059 9.17241 31.8895 9.61065 32.3997C10.0352 32.8938 10.4834 33.3668 10.9266 33.8436C11.3822 34.3352 11.8677 34.802 12.2984 35.3147C12.7131 35.8076 13.2854 36.1552 13.6591 36.7995V36.797Z" fill="#333333"/>
<path d="M44.0107 0.858825C44.3012 0.858825 44.6376 0.858825 44.974 0.858825C45.6693 0.858825 46.3645 0.872481 47.0585 0.8551C47.8083 0.836478 48.3918 1.1605 48.8599 1.70303C49.123 2.00719 49.2621 2.38336 49.246 2.80422C49.087 2.93457 48.9033 2.87746 48.7357 2.87746C46.4526 2.88119 44.1696 2.87995 41.8865 2.87995C37.7375 2.87995 33.5872 2.87995 29.4382 2.87995C29.2222 2.87995 29.0062 2.87995 28.7529 2.87995C28.7629 2.70862 28.7467 2.57082 28.7802 2.44667C28.9292 1.89794 29.2085 1.43114 29.7101 1.13692C30.0739 0.923382 30.4811 0.858825 30.8994 0.858825C31.7536 0.858825 32.6065 0.858825 33.4606 0.858825C33.6568 0.858825 33.8541 0.858825 34.0491 0.858825C34.09 0.72847 34.1235 0.636601 34.1484 0.54349C34.2427 0.179738 34.5208 0.054349 34.8523 0.0121389C34.9889 -0.00524178 35.1304 0.00220707 35.2682 0.00220707C37.7499 0.00220707 40.2316 0.00220707 42.7133 0.00220707C42.753 0.00220707 42.794 -0.00275883 42.8325 0.00220707C43.0262 0.030761 43.2521 0.00841444 43.4036 0.104008C43.6494 0.257951 43.8791 0.466519 43.9225 0.793027C43.9238 0.805441 43.9498 0.815373 44.0094 0.858825H44.0107Z" fill="#333333"/>
<path d="M70.0993 29.0825C69.964 29.2315 69.8486 29.3656 69.7257 29.4922C68.9634 30.2743 68.2011 31.0565 67.4351 31.8349C67.1993 32.0745 66.9435 32.2955 66.7089 32.5375C65.7318 33.5493 64.7598 34.5661 63.784 35.5804C63.6747 35.6946 63.5642 35.8113 63.4413 35.9094C63.1645 36.1279 62.8665 36.1552 62.5537 35.9814C62.2656 35.82 62.2073 35.5494 62.4121 35.2899C62.4606 35.2278 62.5239 35.1782 62.5797 35.1223C62.9 34.8008 63.2216 34.478 63.5729 34.1254C63.5605 34.0608 63.5382 33.9677 63.5233 33.8746C63.4935 33.6847 63.558 33.532 63.6958 33.3979C64.0087 33.0937 64.3153 32.7834 64.6232 32.4742C65.4351 31.6586 66.2533 30.8491 67.054 30.0223C67.3147 29.7529 67.5047 29.4289 67.4947 29.0254C67.4873 28.7126 67.3904 28.427 67.1595 28.2234C66.8889 27.9863 66.694 27.6871 66.4482 27.4351C65.5332 26.4965 64.6133 25.5642 63.6697 24.6542C63.1483 24.1501 62.5859 23.6883 62.0273 23.2228C61.7268 22.9732 61.4028 22.7585 60.9844 22.7411C60.6033 22.7262 60.3066 22.8938 60.0372 23.1309C59.918 23.2352 59.8026 23.3457 59.6995 23.4661C58.5412 24.8268 57.2228 26.0335 55.9763 27.3072C55.6871 27.6027 55.4214 27.923 55.1421 28.2284C55.0626 28.3153 54.9807 28.4059 54.8851 28.473C54.6616 28.6294 54.3165 28.5139 54.2668 28.2458C54.2209 27.9975 54.2358 27.7392 54.2246 27.5207C54.6219 27.1098 55.0005 26.7572 55.3345 26.3662C56.3513 25.1706 57.5356 24.1402 58.5983 22.9906C59.0415 22.5114 59.4798 22.0272 59.9329 21.5579C60.2768 21.2029 60.6406 20.8677 61.0018 20.5176C61.3718 20.5673 61.6908 20.7336 61.9801 20.9335C62.6021 21.363 63.2327 21.7889 63.8088 22.2768C64.5003 22.8627 65.1384 23.512 65.7976 24.1352C66.1142 24.4344 66.4345 24.7312 66.7387 25.0428C67.4836 25.805 68.1875 26.6033 68.874 27.4177C69.2291 27.8386 69.5581 28.2743 69.8846 28.715C69.9653 28.8243 70.0224 28.9509 70.0969 29.08L70.0993 29.0825Z" fill="#333333"/>
<path d="M7.90944 29.0786C8.12546 28.6193 8.40107 28.2431 8.70026 27.8818C9.01312 27.5044 9.2999 27.1047 9.61771 26.731C9.82256 26.4901 10.0696 26.2878 10.2856 26.0556C10.7437 25.564 11.177 25.0475 11.6525 24.5733C12.1838 24.0432 12.7723 23.5689 13.2962 23.0314C13.8338 22.4789 14.4483 22.0208 15.0454 21.5466C15.6066 21.1009 16.2286 20.7148 16.961 20.5087C17.2416 20.6937 17.4452 20.9656 17.6761 21.2052C18.0051 21.5453 18.3105 21.9091 18.6408 22.248C19.3037 22.9308 20.0138 23.5714 20.637 24.2878C21.4837 25.2611 22.4595 26.1053 23.3224 27.0587C23.4403 27.1891 23.5533 27.3269 23.6439 27.4771C23.8698 27.8508 23.845 28.0457 23.5657 28.3772C23.5148 28.4368 23.48 28.51 23.4254 28.5957C23.2516 28.5088 23.1113 28.4753 23.0232 28.3883C22.313 27.6968 21.5744 27.0289 20.9189 26.2878C20.1827 25.456 19.3869 24.685 18.6271 23.8768C18.3565 23.5888 18.0622 23.3219 17.7804 23.045C17.3658 22.6391 16.5687 22.6676 16.2174 22.978C15.7618 23.3815 15.2764 23.7502 14.812 24.1437C14.6469 24.284 14.5153 24.4628 14.3539 24.6081C13.9889 24.9408 13.614 25.2611 13.2465 25.5901C13.1286 25.6956 13.0107 25.8048 12.9113 25.9277C12.3763 26.5919 11.7655 27.1829 11.1658 27.7862C10.9871 27.9662 10.8368 28.1785 10.6916 28.3883C10.4594 28.7235 10.4644 29.1034 10.5538 29.4771C10.5873 29.6186 10.6978 29.7502 10.7971 29.8657C10.9523 30.0457 11.1298 30.2071 11.2937 30.3784C12.3477 31.4784 13.4005 32.5796 14.4806 33.7081C14.4706 33.7776 14.4682 33.8744 14.4408 33.965C14.3899 34.1401 14.4533 34.268 14.5762 34.3871C14.9151 34.7199 15.2515 35.0551 15.5855 35.3927C15.7556 35.5641 15.7394 35.7416 15.5544 35.8943C15.2565 36.1401 14.889 36.1513 14.5687 35.9142C14.4744 35.8446 14.3937 35.754 14.3092 35.6696C13.5942 34.9545 12.8704 34.2481 12.1652 33.5231C10.7835 32.1028 9.41163 30.6727 8.03732 29.2462C7.99635 29.204 7.96655 29.1519 7.9082 29.0712L7.90944 29.0786Z" fill="#333333"/>
<path d="M63.08 33.1445C62.2867 31.9241 61.4078 30.7708 60.3364 29.7863C59.2749 28.8117 58.17 27.8856 56.9173 27.1891C56.8801 27.0079 57.0266 26.9719 57.0961 26.8986C57.6461 26.3263 58.2097 25.7664 58.7609 25.1953C59.2004 24.7409 59.6275 24.2742 60.0608 23.8148C60.3004 23.5615 60.6008 23.4225 60.9385 23.3642C61.4065 23.2822 61.7852 23.4746 62.1166 23.7776C62.4096 24.0457 62.6977 24.3188 62.9683 24.6094C63.4264 25.101 63.9081 25.5653 64.4109 26.0135C65.1359 26.6603 65.8138 27.3592 66.5115 28.0383C66.8342 28.3524 66.9447 28.7385 66.8901 29.178C66.8603 29.4213 66.7697 29.6286 66.5884 29.8062C65.7802 30.5957 64.9844 31.3977 64.1725 32.1823C63.8336 32.5101 63.4661 32.8068 63.0813 33.1457L63.08 33.1445ZM62.4928 29.6795C63.3258 29.6845 63.9913 28.9011 63.9702 28.1538C63.9503 27.4312 63.2874 26.6727 62.4866 26.7025C61.5096 26.7385 61.0018 27.3195 61.0105 28.1935C61.0204 29.0985 61.5071 29.6187 62.4928 29.6783V29.6795Z" fill="#333333"/>
<path d="M21.0512 27.1272C20.7209 27.3557 20.4044 27.5878 20.0741 27.7989C19.5974 28.103 19.1741 28.4755 18.7259 28.8156C17.981 29.3793 17.3479 30.0608 16.7085 30.7263C16.1722 31.2849 15.6731 31.892 15.2758 32.5699C15.1591 32.7685 15.0188 32.9535 14.8686 33.172C14.7706 33.1074 14.6837 33.0664 14.6191 33.0031C13.9425 32.3365 13.2721 31.6623 12.5918 30.9994C12.3534 30.766 12.0815 30.5674 11.8407 30.3364C11.6433 30.1477 11.436 29.9702 11.3044 29.7145C10.958 29.0428 11.0114 28.5164 11.5353 27.9876C11.9959 27.5233 12.4738 27.0776 12.9394 26.6182C13.2634 26.2992 13.57 25.9615 13.899 25.6474C14.5967 24.977 15.3007 24.3116 16.0095 23.6523C16.4391 23.2526 17.2349 23.2315 17.6334 23.6275C18.7569 24.7436 19.868 25.8721 20.9841 26.9956C20.9978 27.0093 21.0015 27.0304 21.0499 27.1285L21.0512 27.1272ZM15.5216 29.6797C16.2814 29.676 16.9605 28.9671 17.0015 28.2073C17.0437 27.4438 16.166 26.6455 15.4906 26.6952C14.6985 26.7523 14.0083 27.2725 14.0207 28.2073C14.0331 29.157 14.7209 29.6536 15.5216 29.6809V29.6797Z" fill="#333333"/>
<path d="M39.0129 68.1578C34.9744 66.4086 30.9135 64.7363 26.8887 62.9796C26.8762 62.9747 26.8762 62.9436 26.8601 62.894C27.0451 62.9188 27.2189 62.93 27.3865 62.9672C30.9756 63.7792 34.5647 64.5936 38.1538 65.4067C38.3276 65.4465 38.5027 65.48 38.6752 65.5234C38.9111 65.583 39.1433 65.5756 39.3816 65.5222C43.1247 64.673 46.8677 63.8263 50.6108 62.9796C50.8789 62.9188 51.1496 62.8704 51.4289 62.8456C50.0732 63.48 48.6902 64.0448 47.3134 64.6234C45.918 65.2106 44.5201 65.7928 43.1321 66.3987C41.7677 66.9933 40.376 67.5222 39.0141 68.1591L39.0129 68.1578Z" fill="url(#paint0_linear_1_8715)"/>
<path d="M26.6498 36.8554H21.5424C21.1004 36.2967 20.4846 35.8808 20.0687 35.2725C20.024 35.2079 19.9632 35.1546 19.9086 35.0974C19.5212 34.7027 19.124 34.3153 18.7466 33.9106C18.3828 33.522 18.0426 33.1123 17.6839 32.7188C17.5386 32.5586 17.3623 32.4258 17.2171 32.2656C17.0073 32.036 16.8123 31.7914 16.6174 31.563C17.2878 30.5661 18.178 29.8522 19.0631 29.1384C20.8322 30.8168 25.1426 35.2005 26.6498 36.8566V36.8554Z" fill="#333333"/>
<path d="M58.8664 29.1297C59.3046 29.4202 61.029 31.1036 61.3543 31.5493C60.8118 32.1452 60.2941 32.7709 59.7156 33.3321C59.147 33.8845 58.6591 34.5078 58.1091 35.0751C57.5467 35.6549 57.0004 36.252 56.4554 36.833C55.7975 36.8902 51.8471 36.8777 51.4026 36.8181C51.3406 36.7064 51.4064 36.6381 51.4796 36.5661C52.0023 36.0534 52.5287 35.5432 53.0451 35.0255C53.6894 34.3799 54.3276 33.7269 54.9682 33.0763C55.7341 32.2992 56.5026 31.5245 57.2636 30.7424C57.6907 30.3041 58.0992 29.8485 58.5237 29.4078C58.628 29.2985 58.7596 29.2154 58.8676 29.1284L58.8664 29.1297Z" fill="#333333"/>
<path d="M13.3179 63.2492C13.8021 62.0984 14.2664 60.9959 14.7307 59.8923C14.7034 60.4633 14.4551 60.9649 14.2813 61.4875C14.1062 62.0127 13.9088 62.5304 13.7114 63.0791C14.0715 63.2666 14.3967 63.5049 14.7592 63.6055C15.1764 63.7222 15.5389 63.9457 15.9374 64.0946C16.5544 64.3243 17.1317 64.6595 17.7326 64.9339C18.4365 65.2554 19.1479 65.5571 19.8555 65.8712C20.0529 65.9581 20.2441 66.0587 20.4402 66.1493C21.1764 66.4895 21.9039 66.8495 22.6563 67.1536C22.8748 67.2418 23.0784 67.3634 23.2944 67.459C24.1224 67.829 24.9257 68.2536 25.7711 68.5838C25.9896 68.6695 26.192 68.7961 26.408 68.8867C27.1566 69.2008 27.8692 69.5919 28.6216 69.8998C29.3255 70.1878 29.9884 70.5764 30.6911 70.8681C31.4583 71.186 32.1771 71.6081 32.9617 71.8837C33.0362 71.9097 33.1058 71.9495 33.1778 71.983C33.8655 72.3033 34.5521 72.6248 35.2399 72.9451C35.6098 73.1177 35.9823 73.2828 36.3485 73.4603C36.7122 73.6366 37.0648 73.8328 37.4546 73.9507C37.5862 73.9904 37.7067 74.0662 37.8321 74.1245C38.2169 74.3033 38.6018 74.4821 38.9903 74.6633C39.5217 74.4163 40.0282 74.1742 40.5397 73.9433C41.2424 73.6254 41.9513 73.3188 42.6539 72.9997C42.9395 72.8706 43.2101 72.7092 43.4957 72.5801C44.2679 72.2313 45.0475 71.8973 45.8185 71.546C46.5596 71.2071 47.2822 70.8259 48.0345 70.5143C48.7657 70.2114 49.4535 69.8203 50.1922 69.5311C50.8067 69.2902 51.3865 68.9637 51.9873 68.6893C52.7595 68.3355 53.538 67.9966 54.3126 67.6502C54.4393 67.5931 54.5634 67.5323 54.6888 67.4727C55.4076 67.135 56.1239 66.7924 56.8465 66.4609C57.4784 66.1704 58.1178 65.8973 58.7497 65.6092C59.0352 65.4789 59.3083 65.3237 59.5926 65.1934C60.5051 64.775 61.4164 64.3566 62.335 63.9506C62.9744 63.6676 63.6237 63.4056 64.3015 63.1213C64.0098 61.9792 63.4797 60.9276 63.2686 59.7731C63.7429 60.9152 64.2184 62.0574 64.7063 63.2318C64.4083 63.3796 64.1153 63.5223 63.8236 63.6688C63.1606 64.0028 62.5113 64.3703 61.831 64.6657C61.0712 64.9972 60.3214 65.3498 59.5616 65.68C58.8465 65.9904 58.1538 66.3541 57.4449 66.6806C56.6901 67.027 55.9253 67.351 55.1705 67.6974C54.551 67.9817 53.9414 68.2883 53.3219 68.5739C52.4815 68.9612 51.6323 69.3324 50.7906 69.7173C50.1711 70.0016 49.5677 70.3256 48.9358 70.5789C48.145 70.8954 47.4038 71.3126 46.6155 71.6341C45.9501 71.906 45.3169 72.2549 44.6626 72.5528C43.9749 72.8669 43.2734 73.1512 42.5857 73.4665C41.8482 73.8042 41.1232 74.1667 40.3883 74.5094C39.9488 74.7142 39.5018 74.9004 39.0003 75.1202C38.7445 75.0159 38.4366 74.9017 38.1399 74.7651C37.3305 74.3914 36.5273 74.0029 35.7166 73.6316C35.0151 73.3113 34.3025 73.0171 33.6023 72.6943C32.8612 72.3529 32.1374 71.9755 31.3925 71.6428C30.4378 71.2157 29.4943 70.7651 28.5384 70.343C27.8444 70.0363 27.1728 69.6825 26.4676 69.3982C25.7165 69.0953 24.9989 68.708 24.2615 68.369C23.5241 68.0289 22.7767 67.7061 22.0393 67.3672C21.2646 67.0109 20.4986 66.6347 19.7227 66.2821C19.0535 65.978 18.3657 65.7098 17.7015 65.3957C16.4712 64.8135 15.2521 64.2089 14.028 63.613C13.8157 63.5099 13.6059 63.3994 13.3167 63.2529L13.3179 63.2492Z" fill="#333333"/>
<path d="M21.9297 55.2204C22.2674 55.0864 22.4784 55.2291 22.6634 55.5122C23.1091 56.1975 23.5709 56.8716 24.034 57.5457C24.0998 57.6413 24.2029 57.7096 24.3096 57.8102C24.543 57.4899 24.7876 57.1671 25.0173 56.8344C25.3165 56.3998 25.607 55.9604 25.8913 55.5171C26.0837 55.2167 26.3245 55.0777 26.6771 55.2291C26.7417 55.7952 26.733 59.3061 26.6635 59.8102H25.8875C25.8304 59.5358 25.8664 59.2614 25.8602 58.9908C25.854 58.7139 25.859 58.4359 25.859 58.1578V57.3297C25.7286 57.2453 25.679 57.3421 25.6243 57.4216C25.391 57.7555 25.1563 58.0882 24.9229 58.4222C24.7901 58.6134 24.6634 58.8095 24.5269 58.9995C24.4276 59.1373 24.2289 59.1683 24.1147 59.0554C24.0191 58.961 23.9409 58.8468 23.8652 58.735C23.525 58.2385 23.1873 57.7394 22.8546 57.2478C22.7975 57.2726 22.7752 57.2763 22.764 57.2887C22.7541 57.2999 22.7578 57.3223 22.7578 57.3409C22.7553 57.3806 22.7541 57.4203 22.7541 57.4601C22.7528 58.1938 22.7516 58.9275 22.7491 59.6599C22.7491 59.6798 22.7466 59.6997 22.7416 59.7195C22.7379 59.7382 22.7317 59.7555 22.7181 59.799C22.6138 59.8114 22.4996 59.8338 22.3841 59.835C22.2314 59.835 22.0787 59.8201 21.9334 59.8114C21.8602 59.2416 21.8614 55.6885 21.931 55.2204H21.9297Z" fill="#333333"/>
<path d="M48.5351 57.5123C48.5761 58.7202 47.4364 59.9692 46.0733 59.9307C44.6084 59.8885 43.7133 58.9387 43.6797 57.5545C43.6462 56.1653 44.6915 55.1187 46.0808 55.0815C47.4675 55.043 48.5712 56.3068 48.5364 57.5135L48.5351 57.5123ZM47.6227 57.5185C47.6438 56.5837 46.8902 55.9877 46.1168 55.9555C45.2117 55.917 44.5897 56.5799 44.5922 57.5222C44.5947 58.4136 45.2241 59.0728 46.0969 59.0691C46.992 59.0654 47.6475 58.3962 47.6239 57.5185H47.6227Z" fill="#333333"/>
<path d="M37.294 55.1832C37.7819 55.1671 38.2537 55.177 38.7267 55.1758C38.9253 55.1758 39.1252 55.1659 39.3213 55.1919C40.2202 55.3124 40.9017 56.3428 40.3965 57.2925C40.2785 57.5135 40.1655 57.7481 39.8837 57.8276C39.7993 57.8512 39.7335 57.9455 39.6404 58.0237C39.9321 58.6358 40.3555 59.1709 40.7081 59.8052C40.3679 59.8599 40.0786 59.8276 39.7534 59.8338C39.3424 59.3298 39.0792 58.7177 38.6646 58.128C38.5454 58.1206 38.3741 58.1106 38.2003 58.1007C38.1705 58.1864 38.137 58.241 38.137 58.2956C38.1308 58.6718 38.132 59.0492 38.1308 59.4254C38.1308 59.5408 38.1308 59.6563 38.1308 59.7866C37.8415 59.8673 37.5895 59.8338 37.3114 59.8239C37.2903 59.7481 37.253 59.6786 37.253 59.6079C37.2493 58.2199 37.2493 56.8319 37.253 55.4427C37.253 55.3682 37.2779 55.2937 37.299 55.1832H37.294ZM38.1283 56.0014C38.1283 56.267 38.1208 56.4632 38.1308 56.6581C38.1407 56.8667 38.0886 57.0852 38.1953 57.3111C38.4622 57.3111 38.7155 57.3198 38.9688 57.3074C39.083 57.3012 39.2022 57.2664 39.3064 57.218C39.5671 57.1001 39.7087 56.8183 39.6627 56.5402C39.6131 56.2397 39.4207 56.0287 39.1215 56.0063C38.8123 55.984 38.5007 56.0014 38.1295 56.0014H38.1283Z" fill="#333333"/>
<path d="M63.7849 18.1287C63.7637 18.1573 63.7203 18.1982 63.7277 18.2131C63.7538 18.264 63.7886 18.3286 63.837 18.3497C64.6638 18.706 65.3454 19.2671 66.0381 19.8295C67.3007 20.8525 68.4702 21.9723 69.5577 23.1716C70.0444 23.7091 70.608 24.1809 71.0127 24.7992C71.2461 25.1555 71.5813 25.4447 71.8507 25.7799C72.0717 26.0543 72.2852 26.3398 72.428 26.6949C72.2753 26.86 72.13 27.0177 71.9587 27.2039C71.8457 27.0735 71.7315 26.9705 71.6521 26.8463C71.3243 26.3349 70.9767 25.8408 70.5397 25.4149C70.4292 25.3069 70.356 25.1629 70.2579 25.04C70.1846 24.9469 70.104 24.8587 70.0208 24.7731C69.1008 23.8196 68.2045 22.8413 67.2486 21.9251C66.711 21.4112 66.1648 20.8997 65.5775 20.4329C65.1691 20.1076 64.7569 19.7799 64.3373 19.4695C63.9673 19.1964 63.585 18.9071 63.1082 18.809C63.0201 18.7904 62.9444 18.7085 62.8401 18.6402C62.9146 18.5285 62.9766 18.4043 63.0685 18.3075C63.1976 18.1697 63.3578 18.1051 63.5515 18.1908C63.6371 18.2293 63.7364 18.2789 63.7923 18.1411L63.7836 18.1324L63.7849 18.1287Z" fill="#333333"/>
<path d="M39.6442 36.6915C38.8037 36.6617 37.9856 36.473 37.34 35.9317C36.1557 34.9386 35.6975 33.6574 36.0787 32.1217C36.2239 31.5369 36.5008 31.0279 36.9465 30.6207C37.1575 30.427 37.3661 30.4283 37.5833 30.5934C37.8403 30.7883 37.8813 30.9919 37.6864 31.2501C37.4964 31.5009 37.2904 31.7343 37.165 32.0323C36.8062 32.8864 36.8621 33.7368 37.3524 34.4817C37.9334 35.3644 38.8186 35.7778 39.8962 35.7046C40.296 35.6772 40.6647 35.5419 41.0173 35.3582C41.1228 35.3036 41.2196 35.2291 41.3301 35.1893C41.5672 35.1037 41.8304 35.2142 41.9372 35.4289C42.0427 35.6425 41.9757 35.9293 41.7497 36.0509C41.093 36.4072 40.4189 36.7238 39.6405 36.6915H39.6442Z" fill="#333333"/>
<path d="M14.6773 18.1277C14.8524 18.3202 14.9927 18.4753 15.1404 18.638C14.2776 18.998 13.5104 19.4797 12.8089 20.0706C12.4203 20.3984 12.0057 20.6976 11.6208 21.0291C11.3825 21.2351 11.1764 21.4785 10.9529 21.7032C10.3098 22.35 9.6593 22.9881 9.02367 23.6424C8.4737 24.2072 7.91627 24.7659 7.40727 25.3668C6.93054 25.9304 6.51465 26.5462 6.05903 27.157C5.94854 27.1694 5.89764 27.0452 5.81942 26.9708C5.735 26.8901 5.66424 26.7969 5.56616 26.684C5.62451 26.5598 5.66672 26.4332 5.73873 26.3239C6.136 25.7193 6.60652 25.1719 7.07952 24.6256C7.2856 24.3872 7.47183 24.1315 7.68288 23.8969C7.8542 23.7069 8.05284 23.5406 8.23409 23.3593C9.14037 22.4456 10.0417 21.5256 10.9529 20.6169C11.1329 20.4381 11.3576 20.3053 11.5451 20.1327C12.1646 19.5616 12.8449 19.075 13.5451 18.6082C13.8915 18.3773 14.2565 18.2308 14.6798 18.1252L14.6773 18.1277Z" fill="#333333"/>
<path d="M41.3757 33.1023C41.4067 33.8435 40.5526 34.8019 39.6091 34.7336C38.5712 34.6591 37.9281 34.0198 37.9554 33.0415C37.9827 32.0558 38.5724 31.4437 39.6798 31.4164C40.5936 31.3941 41.3893 32.2134 41.3757 33.1023Z" fill="#333333"/>
<path d="M55.4652 56.5997C55.2293 56.4446 55.0232 56.3353 54.8482 56.1888C54.5663 55.9529 54.2386 55.9144 53.8997 55.9343C53.5409 55.9566 53.1833 56.0684 52.945 56.3266C52.5043 56.8046 52.3602 57.3831 52.5539 58.0274C52.6781 58.4408 52.8953 58.7984 53.3038 58.9424C53.9965 59.1857 54.6669 59.1634 55.2131 58.5737C55.2529 58.5315 55.3063 58.5029 55.3534 58.4682C55.3696 58.457 55.387 58.447 55.4379 58.4173C55.5322 58.488 55.6365 58.5687 55.7433 58.6482C55.8389 58.7189 55.9357 58.7885 56.0648 58.8828C55.8984 59.0628 55.7991 59.2093 55.6663 59.3086C54.9313 59.8549 54.1194 60.087 53.2181 59.8127C52.4111 59.5669 51.6849 58.8878 51.6104 57.8859C51.5918 57.6302 51.5905 57.3694 51.6166 57.1149C51.7097 56.2074 52.2411 55.6003 53.0431 55.2639C53.6328 55.0156 54.2684 54.9833 54.8804 55.2776C55.1933 55.4278 55.5272 55.5395 55.7768 55.799C55.9742 56.0026 55.968 56.0659 55.7557 56.2658C55.6452 56.3701 55.5546 56.4967 55.4639 56.6022L55.4652 56.5997Z" fill="#333333"/>
<path d="M32.773 58.7921H31.1802C31.0486 59.126 30.9207 59.4538 30.7854 59.7977C30.5123 59.8734 30.2404 59.8262 29.9375 59.8287C29.9425 59.7381 29.9288 59.6611 29.9536 59.5978C30.5111 58.144 31.0735 56.6927 31.6358 55.2365C31.8531 55.1384 32.0679 55.1831 32.3186 55.1868C32.6576 55.9354 32.9183 56.7188 33.2162 57.486C33.5142 58.252 33.832 59.0118 34.0704 59.8175H33.2125C33.061 59.4625 32.9158 59.1223 32.7755 58.7933L32.773 58.7921ZM32.5471 57.9739C32.3609 57.46 32.2317 57.0043 31.9959 56.5127C31.765 57.018 31.5911 57.4649 31.462 58.0025C31.8283 58.0062 32.1523 58.0335 32.5471 57.9752V57.9739Z" fill="#333333"/>
<path d="M6.84378 27.9352C6.41795 27.7291 6.39188 27.677 6.55203 27.3654C6.68735 27.1034 6.85371 26.8613 7.04241 26.6379C7.31802 26.3101 7.53279 25.9352 7.85185 25.6385C8.03932 25.4647 8.19078 25.2524 8.35713 25.055C8.44528 24.9507 8.52101 24.8328 8.6166 24.7372C9.65572 23.7018 10.7135 22.685 11.7339 21.6322C12.2839 21.0649 12.9245 20.613 13.5142 20.0965C13.904 19.7551 14.3746 19.4994 14.8302 19.2449C15.045 19.1245 15.3119 19.0984 15.5701 19.0251C15.6918 19.1505 15.796 19.2573 15.9227 19.3889C15.6843 19.4957 15.4844 19.5788 15.2895 19.6732C14.5471 20.032 13.9065 20.536 13.2746 21.0587C11.8072 22.2728 10.5086 23.6621 9.17775 25.0177C8.56943 25.6372 8.05421 26.33 7.47445 26.9718C7.22863 27.2437 7.06476 27.5901 6.84129 27.9365L6.84378 27.9352Z" fill="#333333"/>
<path d="M71.5618 27.5866C71.4178 27.7132 71.3036 27.815 71.1658 27.9354C71.0987 27.8672 71.0156 27.8076 70.9671 27.7269C70.6754 27.2415 70.3315 26.802 69.9628 26.3687C69.1819 25.4513 68.3849 24.5512 67.537 23.6958C67.0615 23.2166 66.5847 22.7386 66.0906 22.2793C65.6164 21.8398 65.1471 21.3916 64.6083 21.0254C64.4333 20.9062 64.3228 20.715 64.1117 20.6145C63.9267 20.5263 63.779 20.36 63.5978 20.2408C63.126 19.9292 62.6617 19.6126 62.0745 19.404C62.1452 19.3233 62.1936 19.2749 62.2334 19.2203C62.3761 19.0217 62.5735 19.0105 62.7622 19.1073C63.1608 19.3122 63.5692 19.5096 63.9342 19.7641C64.4755 20.1415 65.0019 20.5449 65.5022 20.9757C66.1142 21.5034 66.7027 22.0608 67.2825 22.6257C67.851 23.1794 68.4134 23.7417 68.9435 24.3314C69.2192 24.6393 69.4935 24.9472 69.7828 25.2427C70.1403 25.6064 70.4259 26.0335 70.7462 26.4295C70.9833 26.7213 71.2291 27.0043 71.4228 27.3284C71.4625 27.3954 71.4973 27.4662 71.5618 27.5854V27.5866Z" fill="#333333"/>
<path d="M38.7734 17.3988V16.8749C38.8132 16.8413 38.8504 16.7867 38.9013 16.7693C39.0106 16.7308 39.1273 16.6886 39.2402 16.6886C39.7629 16.6849 40.2347 16.8426 40.6841 17.1145C41.0875 17.359 41.4525 17.6173 41.7281 18.0195C42.5152 19.1691 42.4681 20.4255 41.8014 21.4062C41.3644 22.0493 40.7449 22.4987 39.9888 22.7297C39.8771 22.7632 39.7542 22.7731 39.6375 22.7706C39.4649 22.7669 39.3035 22.6092 39.2688 22.4354C39.2402 22.2951 39.3184 22.1064 39.4662 22.0357C39.6065 21.9674 39.7666 21.9401 39.9119 21.8792C40.7821 21.518 41.3545 20.9034 41.4327 19.9363C41.4972 19.1368 41.1745 18.4987 40.5314 17.9996C40.1391 17.6955 39.7182 17.5353 39.2291 17.5105C39.095 17.503 38.9621 17.4459 38.7747 17.3975L38.7734 17.3988Z" fill="#333333"/>
<path d="M70.7951 28.3078C70.6958 28.422 70.5965 28.535 70.4798 28.6703C70.2191 28.3202 69.9782 27.9913 69.7324 27.666C69.3649 27.1806 69.0012 26.6927 68.548 26.2768C68.3618 26.1067 68.2327 25.8745 68.0564 25.6908C67.6306 25.2476 67.1923 24.818 66.7591 24.3823C66.2414 23.8621 65.746 23.3183 65.2023 22.8267C64.3059 22.0148 63.3922 21.219 62.3568 20.5834C62.0713 20.4083 61.7584 20.278 61.4307 20.1129C61.4518 20.0719 61.4716 20.0284 61.4965 19.9887C61.6591 19.7317 61.8391 19.7491 62.0601 19.8695C62.4996 20.1091 62.9626 20.3251 63.3587 20.6256C64.2004 21.2662 65.0595 21.8857 65.7808 22.674C66.1532 23.08 66.5989 23.4177 66.9887 23.8087C67.5462 24.3686 68.0899 24.9422 68.6287 25.522C69.283 26.2271 69.9087 26.9583 70.4698 27.7417C70.5952 27.9168 70.6859 28.1154 70.7963 28.3078H70.7951Z" fill="#333333"/>
<path d="M7.50304 28.6801C7.42234 28.6267 7.3491 28.5956 7.29944 28.541C7.16039 28.3896 7.14922 28.284 7.25847 28.1214C7.51173 27.7465 7.7414 27.3529 8.03191 27.0103C8.69486 26.2294 9.3727 25.4609 10.0741 24.7148C10.711 24.0369 11.3789 23.3877 12.0468 22.7384C12.3423 22.4503 12.675 22.1996 12.9817 21.9227C13.6471 21.3218 14.3485 20.7694 15.0996 20.2765C15.4125 20.0717 15.7377 19.9165 16.1375 19.7911C16.2703 19.8668 16.4342 19.9587 16.644 20.0779C16.3572 20.212 16.1214 20.31 15.8979 20.4305C15.4361 20.6788 14.9842 20.9382 14.5832 21.2871C14.2455 21.5813 13.8631 21.8234 13.5167 22.1089C13.3045 22.284 13.1269 22.5025 12.9258 22.6912C12.3783 23.2052 11.8097 23.698 11.2796 24.2294C10.7905 24.7185 10.3411 25.2449 9.87301 25.7552C9.44719 26.2195 8.98536 26.6552 8.60423 27.153C8.274 27.5851 7.90652 27.996 7.65946 28.4889C7.62594 28.5547 7.56263 28.6068 7.5018 28.6788L7.50304 28.6801Z" fill="#333333"/>
<path d="M38.4439 21.0713C38.3284 20.9682 38.1881 20.8577 38.0652 20.7299C37.5028 20.1439 37.5388 19.1619 38.1745 18.6591C38.5246 18.381 38.9641 18.2631 39.411 18.3723C40.1956 18.566 40.578 19.1433 40.5829 19.8521C40.5867 20.5722 39.7276 21.2774 38.9864 21.1793C38.8101 21.1557 38.6363 21.111 38.4439 21.0725V21.0713Z" fill="#333333"/>
<path d="M48.2762 34.2419C47.9795 35.2128 47.7324 36.0619 47.3302 36.8453H43.6902C43.6393 36.7237 43.72 36.6715 43.7783 36.6405C44.6784 36.1488 45.5946 35.6858 46.4773 35.1644C46.9466 34.8875 47.4432 34.6678 47.9125 34.3934C47.9907 34.3475 48.0813 34.3226 48.2762 34.2432V34.2419Z" fill="#333333"/>
<path d="M14.4474 17.8868C13.6056 18.1711 12.9775 18.6615 12.3369 19.1308C11.9743 19.3964 11.6156 19.6671 11.2679 19.9526C11.0854 20.1016 10.9377 20.2915 10.7651 20.4529C10.1742 21.0066 9.56215 21.5405 8.99108 22.114C8.46221 22.6454 7.983 23.2276 7.4653 23.7714C6.84457 24.4244 6.28342 25.1258 5.73469 25.8384C5.59688 26.0185 5.46901 26.2059 5.31631 26.4182C5.17478 26.0669 5.31259 25.8335 5.49012 25.615C6.03264 24.9446 6.57517 24.2742 7.12762 23.6112C7.2915 23.4151 7.4951 23.2525 7.66891 23.0625C8.00162 22.6988 8.32068 22.3213 8.65588 21.9601C9.18102 21.394 9.76948 20.8949 10.3468 20.3834C11.3387 19.5044 12.3853 18.7 13.4877 17.965C13.6156 17.8794 13.7608 17.8148 13.9061 17.7589C14.0613 17.6993 14.0687 17.7105 14.4486 17.8868H14.4474Z" fill="#333333"/>
<path d="M63.7918 18.1387C63.7794 18.0928 63.7807 18.0369 63.7534 18.0046C63.7099 17.9537 63.6466 17.9202 63.5522 17.8494C63.8291 17.6831 64.0538 17.6893 64.2586 17.8383C65.011 18.3882 65.8316 18.8426 66.5206 19.482C66.8347 19.7737 67.2022 20.0059 67.5262 20.2889C67.8242 20.5484 68.0948 20.8389 68.3779 21.1158C68.8881 21.6148 69.4095 22.1027 69.9036 22.6167C70.4499 23.1841 70.9564 23.7862 71.4555 24.3982C71.8267 24.8526 72.2053 25.302 72.5716 25.7601C72.728 25.9563 72.7677 26.1326 72.7032 26.402C72.6225 26.3598 72.538 26.3461 72.5095 26.2977C72.2215 25.8048 71.8652 25.3678 71.5002 24.9271C70.7938 24.0742 70.0601 23.2511 69.2829 22.464C68.6572 21.8309 68.0228 21.2039 67.3747 20.5931C66.6895 19.9463 65.9495 19.364 65.1972 18.7979C64.8036 18.5025 64.3716 18.2753 63.9123 18.0977C63.8775 18.0841 63.8254 18.1176 63.7819 18.1288L63.7906 18.1375L63.7918 18.1387Z" fill="#333333"/>
<path d="M61.6649 56.9449L63.6649 62.7476L39.0092 74.0636L14.3548 62.7476L16.3536 56.9449C16.3536 56.9449 6.09774 57.9195 2.64893 58.904C3.09958 58.755 12.7893 55.5768 18.9458 54.9102L16.8166 61.3087L39.0092 71.176L61.2031 61.3087L59.0739 54.9102C65.2304 55.5768 74.9201 58.755 75.3708 58.904C71.922 57.9195 61.6649 56.9449 61.6649 56.9449Z" fill="url(#paint1_linear_1_8715)"/>
<path d="M60.9174 56.3354L63.0453 62.4459L39.0116 73.5012L14.9779 62.4459L17.107 56.3354C17.107 56.3354 11.7501 56.8531 11.0735 56.9474C11.0735 56.9474 16.4255 55.6116 18.2418 55.4713L16.1896 61.5458L39.0116 71.6961L61.8349 61.5458L59.7815 55.4713C61.599 55.6116 66.951 56.9474 66.951 56.9474C66.2744 56.8531 60.9174 56.3354 60.9174 56.3354Z" fill="url(#paint2_linear_1_8715)"/>
<defs>
<linearGradient id="paint0_linear_1_8715" x1="26.8613" y1="65.5011" x2="51.4289" y2="65.5011" gradientUnits="userSpaceOnUse">
<stop stop-color="#D80101"/>
<stop offset="0.16" stop-color="#AC0102"/>
<stop offset="0.37" stop-color="#D80101"/>
<stop offset="0.53" stop-color="#970102"/>
<stop offset="0.72" stop-color="#D80101"/>
<stop offset="0.88" stop-color="#970102"/>
<stop offset="1" stop-color="#D80101"/>
</linearGradient>
<linearGradient id="paint1_linear_1_8715" x1="2.64893" y1="64.4869" x2="75.3708" y2="64.4869" gradientUnits="userSpaceOnUse">
<stop stop-color="#970102"/>
<stop offset="0.26" stop-color="#D80101"/>
<stop offset="0.38" stop-color="#970102"/>
<stop offset="0.48" stop-color="#D80101"/>
<stop offset="0.69" stop-color="#970102"/>
<stop offset="0.86" stop-color="#D80101"/>
<stop offset="1" stop-color="#970102"/>
</linearGradient>
<linearGradient id="paint2_linear_1_8715" x1="11.0735" y1="64.4869" x2="66.951" y2="64.4869" gradientUnits="userSpaceOnUse">
<stop stop-color="#D80101"/>
<stop offset="0.16" stop-color="#AC0102"/>
<stop offset="0.37" stop-color="#D80101"/>
<stop offset="0.53" stop-color="#970102"/>
<stop offset="0.72" stop-color="#D80101"/>
<stop offset="0.88" stop-color="#970102"/>
<stop offset="1" stop-color="#D80101"/>
</linearGradient>
</defs>
</svg>
