<svg id="Layer_2" data-name="Layer 2" xmlns="http://www.w3.org/2000/svg" width="101.625" height="40.406" viewBox="0 0 101.625 40.406">
  <g id="Layer_1" data-name="Layer 1">
    <path id="Path_14280" data-name="Path 14280" d="M96.209,40.406H5.416A5.423,5.423,0,0,1,0,34.99V5.416A5.423,5.423,0,0,1,5.416,0H96.209a5.423,5.423,0,0,1,5.416,5.416V34.99A5.423,5.423,0,0,1,96.209,40.406ZM5.416,1.546a3.872,3.872,0,0,0-3.87,3.87V34.99a3.872,3.872,0,0,0,3.87,3.87H96.209a3.872,3.872,0,0,0,3.87-3.87V5.416a3.872,3.872,0,0,0-3.87-3.87Z" fill="#24404d"/>
    <path id="Path_14287" data-name="Path 14287" d="M352.8,42.685a5.414,5.414,0,0,0-3.972-1.591H342.64V57.745h3.065V52.164h3.123a5.414,5.414,0,0,0,3.972-1.591,5.632,5.632,0,0,0,0-7.888Zm-1.453,3.953a2.5,2.5,0,0,1-2.519,2.635h-3.123V44h3.123a2.5,2.5,0,0,1,2.519,2.637Z" transform="translate(-262.958 -31.536)" fill="#ff5704"/>
    <path id="Path_14288" data-name="Path 14288" d="M281.31,41.22v10.7a6.062,6.062,0,1,0,12.124,0V41.22Zm.67,5.309,5.377-5.291,5.377,5.291h-2.388v5.032a3,3,0,1,1-6,0V46.529Z" transform="translate(-215.891 -31.634)" fill="#ff5704"/>
    <rect id="Rectangle_7897" data-name="Rectangle 7897" width="25.146" height="2.637" transform="translate(65.617 27.974)" fill="#ff5704"/>
    <path id="Path_14289" data-name="Path 14289" d="M47.306,72.637h6.3v3.112H44.05V59.27h3.256Z" transform="translate(-33.806 -45.487)" fill="#24404d"/>
    <path id="Path_14290" data-name="Path 14290" d="M91.957,84.327c.4,1.486,1.509,2.216,3.326,2.216a3.12,3.12,0,0,0,2.642-1.179l2.453,1.414A5.87,5.87,0,0,1,95.236,89.3a6.331,6.331,0,0,1-4.693-1.77,6.5,6.5,0,0,1-.023-8.89A5.955,5.955,0,0,1,95,76.85a5.55,5.55,0,0,1,4.27,1.793,6.2,6.2,0,0,1,1.7,4.432,8.08,8.08,0,0,1-.116,1.251Zm5.967-2.358A2.851,2.851,0,0,0,95,79.585a2.938,2.938,0,0,0-3.088,2.384Z" transform="translate(-68.127 -58.978)" fill="#24404d"/>
    <path id="Path_14291" data-name="Path 14291" d="M151.719,78.24h3.349l-4.481,11.79h-3.465L142.64,78.24h3.349l2.853,8.253Z" transform="translate(-109.469 -60.045)" fill="#24404d"/>
    <path id="Path_14292" data-name="Path 14292" d="M200.887,84.327c.4,1.486,1.509,2.216,3.326,2.216a3.123,3.123,0,0,0,2.642-1.179l2.453,1.414a5.87,5.87,0,0,1-5.142,2.526,6.331,6.331,0,0,1-4.693-1.77,6.5,6.5,0,0,1-.023-8.89,5.955,5.955,0,0,1,4.479-1.793,5.553,5.553,0,0,1,4.27,1.793,6.2,6.2,0,0,1,1.7,4.432,8.081,8.081,0,0,1-.116,1.251Zm5.967-2.358a2.851,2.851,0,0,0-2.926-2.384,2.938,2.938,0,0,0-3.088,2.384Z" transform="translate(-151.725 -58.978)" fill="#24404d"/>
    <rect id="Rectangle_7898" data-name="Rectangle 7898" width="3.042" height="16.832" transform="translate(60.294 13.783)" fill="#24404d"/>
  </g>
</svg>
